<svg width="320" height="50" viewBox="0 0 320 50" fill="none" xmlns="http://www.w3.org/2000/svg">
<path d="M1 1H294.586L319 25.4142V49H12.9142L1 37.0858V1Z" stroke="#FEFD33" stroke-width="2"/>
<path fill-rule="evenodd" clip-rule="evenodd" d="M293.5 3.99988H3.5V35.4999L14 45.9999H316L316 26.4999L293.5 3.99988ZM59.0537 19.1919C58.5257 18.6639 57.7217 18.3999 56.6417 18.3999H48.9017C48.6617 18.3999 48.5417 18.5199 48.5417 18.7599V30.6399C48.5417 30.8799 48.6617 30.9999 48.9017 30.9999H56.6417C57.7217 30.9999 58.5257 30.7359 59.0537 30.2079C59.5817 29.6799 59.8457 28.8759 59.8457 27.7959V21.5859C59.8457 20.5059 59.5817 19.7079 59.0537 19.1919ZM56.7677 21.0639C56.9597 21.2439 57.0557 21.5379 57.0557 21.9459V27.4359C57.0557 27.8439 56.9597 28.1439 56.7677 28.3359C56.5877 28.5159 56.2937 28.6059 55.8857 28.6059H51.3317V20.7759H55.8857C56.2937 20.7759 56.5877 20.8719 56.7677 21.0639ZM63.5172 30.2979C64.0452 30.8259 64.8492 31.0899 65.9292 31.0899H71.2392C72.3192 31.0899 73.1172 30.8259 73.6332 30.2979C74.1612 29.7699 74.4252 28.9659 74.4252 27.8859V21.4959C74.4252 20.4159 74.1612 19.6179 73.6332 19.1019C73.1172 18.5739 72.3192 18.3099 71.2392 18.3099H65.9292C64.8492 18.3099 64.0452 18.5739 63.5172 19.1019C62.9892 19.6179 62.7252 20.4159 62.7252 21.4959V27.8859C62.7252 28.9659 62.9892 29.7699 63.5172 30.2979ZM71.3472 28.4259C71.1672 28.6059 70.8732 28.6959 70.4652 28.6959H66.6852C66.2772 28.6959 65.9772 28.6059 65.7852 28.4259C65.6052 28.2339 65.5152 27.9339 65.5152 27.5259V21.8559C65.5152 21.4479 65.6052 21.1539 65.7852 20.9739C65.9772 20.7819 66.2772 20.6859 66.6852 20.6859H70.4652C70.8732 20.6859 71.1672 20.7819 71.3472 20.9739C71.5392 21.1539 71.6352 21.4479 71.6352 21.8559V27.5259C71.6352 27.9339 71.5392 28.2339 71.3472 28.4259ZM79.1694 30.9279C79.2414 30.9759 79.3374 30.9999 79.4574 30.9999H82.1754C82.3074 30.9999 82.4034 30.9759 82.4634 30.9279C82.5354 30.8799 82.5834 30.7899 82.6074 30.6579L84.6054 22.6659H84.7314L86.7294 30.6579C86.7534 30.7899 86.7954 30.8799 86.8554 30.9279C86.9274 30.9759 87.0294 30.9999 87.1614 30.9999H89.8794C89.9994 30.9999 90.0894 30.9759 90.1494 30.9279C90.2214 30.8799 90.2754 30.7899 90.3114 30.6579L93.2814 18.7959C93.2934 18.7599 93.2994 18.7119 93.2994 18.6519C93.2994 18.4839 93.1914 18.3999 92.9754 18.3999H90.8514C90.7194 18.3999 90.6174 18.4239 90.5454 18.4719C90.4854 18.5199 90.4434 18.6099 90.4194 18.7419L89.4654 22.9539L88.4394 27.5259H88.2954L86.1174 18.7239C86.0934 18.6039 86.0454 18.5199 85.9734 18.4719C85.9134 18.4239 85.8174 18.3999 85.6854 18.3999H83.6514C83.5194 18.3999 83.4174 18.4239 83.3454 18.4719C83.2854 18.5199 83.2434 18.6039 83.2194 18.7239L81.0414 27.5259H80.8974L78.9534 18.7059C78.9294 18.5859 78.8814 18.5079 78.8094 18.4719C78.7374 18.4239 78.6294 18.3999 78.4854 18.3999H76.3794C76.1514 18.3999 76.0374 18.4779 76.0374 18.6339C76.0374 18.6939 76.0434 18.7419 76.0554 18.7779L79.0254 30.6579C79.0614 30.7899 79.1094 30.8799 79.1694 30.9279ZM95.0007 30.6399C95.0007 30.8799 95.1207 30.9999 95.3607 30.9999H97.3947C97.6347 30.9999 97.7547 30.8799 97.7547 30.6399V22.4499H97.8807L102.633 30.6759C102.693 30.7959 102.759 30.8799 102.831 30.9279C102.915 30.9759 103.023 30.9999 103.155 30.9999H105.891C106.131 30.9999 106.251 30.8799 106.251 30.6399V18.7599C106.251 18.5199 106.131 18.3999 105.891 18.3999H103.875C103.635 18.3999 103.515 18.5199 103.515 18.7599V26.9319H103.371L98.6187 18.7059C98.5587 18.5979 98.4867 18.5199 98.4027 18.4719C98.3307 18.4239 98.2287 18.3999 98.0967 18.3999H95.3607C95.1207 18.3999 95.0007 18.5199 95.0007 18.7599V30.6399ZM109.309 30.6399C109.309 30.8799 109.429 30.9999 109.669 30.9999H118.183C118.423 30.9999 118.543 30.8799 118.543 30.6399V28.8399C118.543 28.5999 118.423 28.4799 118.183 28.4799H112.099V18.7599C112.099 18.5199 111.979 18.3999 111.739 18.3999H109.669C109.429 18.3999 109.309 18.5199 109.309 18.7599V30.6399ZM120.734 30.2979C121.262 30.8259 122.066 31.0899 123.146 31.0899H128.456C129.536 31.0899 130.334 30.8259 130.85 30.2979C131.378 29.7699 131.642 28.9659 131.642 27.8859V21.4959C131.642 20.4159 131.378 19.6179 130.85 19.1019C130.334 18.5739 129.536 18.3099 128.456 18.3099H123.146C122.066 18.3099 121.262 18.5739 120.734 19.1019C120.206 19.6179 119.942 20.4159 119.942 21.4959V27.8859C119.942 28.9659 120.206 29.7699 120.734 30.2979ZM128.564 28.4259C128.384 28.6059 128.09 28.6959 127.682 28.6959H123.902C123.494 28.6959 123.194 28.6059 123.002 28.4259C122.822 28.2339 122.732 27.9339 122.732 27.5259V21.8559C122.732 21.4479 122.822 21.1539 123.002 20.9739C123.194 20.7819 123.494 20.6859 123.902 20.6859H127.682C128.09 20.6859 128.384 20.7819 128.564 20.9739C128.756 21.1539 128.852 21.4479 128.852 21.8559V27.5259C128.852 27.9339 128.756 28.2339 128.564 28.4259ZM145.602 30.6939C145.602 30.6219 145.59 30.5619 145.566 30.5139L140.868 18.7239C140.82 18.6039 140.76 18.5199 140.688 18.4719C140.616 18.4239 140.514 18.3999 140.382 18.3999H138.114C137.874 18.3999 137.712 18.5079 137.628 18.7239L132.93 30.4779C132.894 30.5499 132.876 30.6219 132.876 30.6939C132.876 30.8979 133.014 30.9999 133.29 30.9999H135.216C135.336 30.9999 135.432 30.9759 135.504 30.9279C135.576 30.8799 135.636 30.7959 135.684 30.6759L136.566 28.4259H141.93L142.812 30.6759C142.86 30.7959 142.92 30.8799 142.992 30.9279C143.064 30.9759 143.166 30.9999 143.298 30.9999H145.188C145.464 30.9999 145.602 30.8979 145.602 30.6939ZM137.394 26.0859L139.194 21.4419H139.302L141.102 26.0859H137.394ZM157.438 19.1919C156.91 18.6639 156.106 18.3999 155.026 18.3999H147.286C147.046 18.3999 146.926 18.5199 146.926 18.7599V30.6399C146.926 30.8799 147.046 30.9999 147.286 30.9999H155.026C156.106 30.9999 156.91 30.7359 157.438 30.2079C157.966 29.6799 158.23 28.8759 158.23 27.7959V21.5859C158.23 20.5059 157.966 19.7079 157.438 19.1919ZM155.152 21.0639C155.344 21.2439 155.44 21.5379 155.44 21.9459V27.4359C155.44 27.8439 155.344 28.1439 155.152 28.3359C154.972 28.5159 154.678 28.6059 154.27 28.6059H149.716V20.7759H154.27C154.678 20.7759 154.972 20.8719 155.152 21.0639ZM165.243 30.6399C165.243 30.8799 165.363 30.9999 165.603 30.9999H174.117C174.357 30.9999 174.477 30.8799 174.477 30.6399V28.8399C174.477 28.5999 174.357 28.4799 174.117 28.4799H168.033V18.7599C168.033 18.5199 167.913 18.3999 167.673 18.3999H165.603C165.363 18.3999 165.243 18.5199 165.243 18.7599V30.6399ZM187.315 30.6939C187.315 30.6219 187.303 30.5619 187.279 30.5139L182.581 18.7239C182.533 18.6039 182.473 18.5199 182.401 18.4719C182.329 18.4239 182.227 18.3999 182.095 18.3999H179.827C179.587 18.3999 179.425 18.5079 179.341 18.7239L174.643 30.4779C174.607 30.5499 174.589 30.6219 174.589 30.6939C174.589 30.8979 174.727 30.9999 175.003 30.9999H176.929C177.049 30.9999 177.145 30.9759 177.217 30.9279C177.289 30.8799 177.349 30.7959 177.397 30.6759L178.279 28.4259H183.643L184.525 30.6759C184.573 30.7959 184.633 30.8799 184.705 30.9279C184.777 30.9759 184.879 30.9999 185.011 30.9999H186.901C187.177 30.9999 187.315 30.8979 187.315 30.6939ZM179.107 26.0859L180.907 21.4419H181.015L182.815 26.0859H179.107ZM189.431 30.2979C189.959 30.8259 190.763 31.0899 191.843 31.0899H196.523C197.603 31.0899 198.401 30.8259 198.917 30.2979C199.445 29.7699 199.709 28.9659 199.709 27.8859V18.7599C199.709 18.5199 199.589 18.3999 199.349 18.3999H197.279C197.039 18.3999 196.919 18.5199 196.919 18.7599V27.3999C196.919 27.8079 196.823 28.1079 196.631 28.2999C196.451 28.4799 196.157 28.5699 195.749 28.5699H192.599C192.191 28.5699 191.891 28.4799 191.699 28.2999C191.519 28.1079 191.429 27.8079 191.429 27.3999V18.7599C191.429 18.5199 191.309 18.3999 191.069 18.3999H188.999C188.759 18.3999 188.639 18.5199 188.639 18.7599V27.8859C188.639 28.9659 188.903 29.7699 189.431 30.2979ZM202.772 30.6399C202.772 30.8799 202.892 30.9999 203.132 30.9999H205.166C205.406 30.9999 205.526 30.8799 205.526 30.6399V22.4499H205.652L210.404 30.6759C210.464 30.7959 210.53 30.8799 210.602 30.9279C210.686 30.9759 210.794 30.9999 210.926 30.9999H213.662C213.902 30.9999 214.022 30.8799 214.022 30.6399V18.7599C214.022 18.5199 213.902 18.3999 213.662 18.3999H211.646C211.406 18.3999 211.286 18.5199 211.286 18.7599V26.9319H211.142L206.39 18.7059C206.33 18.5979 206.258 18.5199 206.174 18.4719C206.102 18.4239 206 18.3999 205.868 18.3999H203.132C202.892 18.3999 202.772 18.5199 202.772 18.7599V30.6399ZM217.783 30.2979C218.311 30.8259 219.115 31.0899 220.195 31.0899H225.055C226.135 31.0899 226.933 30.8259 227.449 30.2979C227.977 29.7699 228.241 28.9659 228.241 27.8859V26.8599C228.241 26.6199 228.121 26.4999 227.881 26.4999H225.775C225.535 26.4999 225.415 26.6199 225.415 26.8599V27.5259C225.415 27.9339 225.319 28.2339 225.127 28.4259C224.947 28.6059 224.653 28.6959 224.245 28.6959H220.951C220.543 28.6959 220.243 28.6059 220.051 28.4259C219.871 28.2339 219.781 27.9339 219.781 27.5259V21.8559C219.781 21.4479 219.871 21.1539 220.051 20.9739C220.243 20.7819 220.543 20.6859 220.951 20.6859H224.245C224.653 20.6859 224.947 20.7819 225.127 20.9739C225.319 21.1539 225.415 21.4479 225.415 21.8559V22.5399C225.415 22.7799 225.535 22.8999 225.775 22.8999H227.881C228.121 22.8999 228.241 22.7799 228.241 22.5399V21.4959C228.241 20.4159 227.977 19.6179 227.449 19.1019C226.933 18.5739 226.135 18.3099 225.055 18.3099H220.195C219.115 18.3099 218.311 18.5739 217.783 19.1019C217.255 19.6179 216.991 20.4159 216.991 21.4959V27.8859C216.991 28.9659 217.255 29.7699 217.783 30.2979ZM242.162 18.7599C242.162 18.5199 242.042 18.3999 241.802 18.3999H239.732C239.492 18.3999 239.372 18.5199 239.372 18.7599V23.4759H233.828V18.7599C233.828 18.5199 233.708 18.3999 233.468 18.3999H231.398C231.158 18.3999 231.038 18.5199 231.038 18.7599V30.6399C231.038 30.8799 231.158 30.9999 231.398 30.9999H233.468C233.708 30.9999 233.828 30.8799 233.828 30.6399V25.9959H239.372V30.6399C239.372 30.8799 239.492 30.9999 239.732 30.9999H241.802C242.042 30.9999 242.162 30.8799 242.162 30.6399V18.7599ZM254.853 29.0199C254.853 28.7799 254.733 28.6599 254.493 28.6599H248.013V25.7799H252.423C252.663 25.7799 252.783 25.6599 252.783 25.4199V23.8899C252.783 23.6499 252.663 23.5299 252.423 23.5299H248.013V20.7399H254.313C254.553 20.7399 254.673 20.6199 254.673 20.3799V18.7599C254.673 18.5199 254.553 18.3999 254.313 18.3999H245.583C245.343 18.3999 245.223 18.5199 245.223 18.7599V30.6399C245.223 30.8799 245.343 30.9999 245.583 30.9999H254.493C254.733 30.9999 254.853 30.8799 254.853 30.6399V29.0199ZM268.013 30.7119C268.013 30.6159 267.977 30.5259 267.905 30.4419L264.377 26.3019V26.2299H264.863C265.919 26.2299 266.681 25.9899 267.149 25.5099C267.629 25.0299 267.869 24.2619 267.869 23.2059V21.4059C267.869 20.3499 267.629 19.5879 267.149 19.1199C266.681 18.6399 265.919 18.3999 264.863 18.3999H257.519C257.279 18.3999 257.159 18.5199 257.159 18.7599V30.6399C257.159 30.8799 257.279 30.9999 257.519 30.9999H259.589C259.829 30.9999 259.949 30.8799 259.949 30.6399V26.2299H261.047L264.773 30.7299C264.857 30.8259 264.941 30.8979 265.025 30.9459C265.109 30.9819 265.217 30.9999 265.349 30.9999H267.689C267.797 30.9999 267.875 30.9759 267.923 30.9279C267.983 30.8679 268.013 30.7959 268.013 30.7119ZM259.949 24.0699V20.6859H263.999C264.395 20.6859 264.671 20.7699 264.827 20.9379C264.995 21.0939 265.079 21.3699 265.079 21.7659V22.9899C265.079 23.3859 264.995 23.6679 264.827 23.8359C264.671 23.9919 264.395 24.0699 263.999 24.0699H259.949Z" fill="#FEFD33"/>
</svg>
