<svg width="375" height="75" viewBox="0 0 375 75" fill="none" xmlns="http://www.w3.org/2000/svg">
<path d="M1.5 1.5H336.879L373.5 38.1213V73.5H19.3713L1.5 55.6287V1.5Z" stroke="#FEFD33" stroke-width="3"/>
<path fill-rule="evenodd" clip-rule="evenodd" d="M335.25 6H6V53.25L21.75 69H368.999L369 39.75L335.25 6ZM92.5211 44.96C92.5211 45.32 92.7011 45.5 93.0611 45.5H105.832C106.192 45.5 106.372 45.32 106.372 44.96V42.26C106.372 41.9 106.192 41.72 105.832 41.72H96.7061V27.14C96.7061 26.78 96.5261 26.6 96.1661 26.6H93.0611C92.7011 26.6 92.5211 26.78 92.5211 27.14V44.96ZM123.577 42.53C123.577 42.17 123.397 41.99 123.037 41.99H113.317V37.67H119.932C120.292 37.67 120.472 37.49 120.472 37.13V34.835C120.472 34.475 120.292 34.295 119.932 34.295H113.317V30.11H122.767C123.127 30.11 123.307 29.93 123.307 29.57V27.14C123.307 26.78 123.127 26.6 122.767 26.6H109.672C109.312 26.6 109.132 26.78 109.132 27.14V44.96C109.132 45.32 109.312 45.5 109.672 45.5H123.037C123.397 45.5 123.577 45.32 123.577 44.96V42.53ZM143.533 45.041C143.533 44.933 143.515 44.843 143.479 44.771L136.432 27.086C136.36 26.906 136.27 26.78 136.162 26.708C136.054 26.636 135.901 26.6 135.703 26.6H132.301C131.941 26.6 131.698 26.762 131.572 27.086L124.525 44.717C124.471 44.825 124.444 44.933 124.444 45.041C124.444 45.347 124.651 45.5 125.065 45.5H127.954C128.134 45.5 128.278 45.464 128.386 45.392C128.494 45.32 128.584 45.194 128.656 45.014L129.979 41.639H138.025L139.348 45.014C139.42 45.194 139.51 45.32 139.618 45.392C139.726 45.464 139.879 45.5 140.077 45.5H142.912C143.326 45.5 143.533 45.347 143.533 45.041ZM131.221 38.129L133.921 31.163H134.083L136.783 38.129H131.221ZM161.8 45.068C161.8 44.924 161.746 44.789 161.638 44.663L156.346 38.453V38.345H157.075C158.659 38.345 159.802 37.985 160.504 37.265C161.224 36.545 161.584 35.393 161.584 33.809V31.109C161.584 29.525 161.224 28.382 160.504 27.68C159.802 26.96 158.659 26.6 157.075 26.6H146.059C145.699 26.6 145.519 26.78 145.519 27.14V44.96C145.519 45.32 145.699 45.5 146.059 45.5H149.164C149.524 45.5 149.704 45.32 149.704 44.96V38.345H151.351L156.94 45.095C157.066 45.239 157.192 45.347 157.318 45.419C157.444 45.473 157.606 45.5 157.804 45.5H161.314C161.476 45.5 161.593 45.464 161.665 45.392C161.755 45.302 161.8 45.194 161.8 45.068ZM149.704 35.105V30.029H155.779C156.373 30.029 156.787 30.155 157.021 30.407C157.273 30.641 157.399 31.055 157.399 31.649V33.485C157.399 34.079 157.273 34.502 157.021 34.754C156.787 34.988 156.373 35.105 155.779 35.105H149.704ZM165.558 44.96C165.558 45.32 165.738 45.5 166.098 45.5H169.149C169.509 45.5 169.689 45.32 169.689 44.96V32.675H169.878L177.006 45.014C177.096 45.194 177.195 45.32 177.303 45.392C177.429 45.464 177.591 45.5 177.789 45.5H181.893C182.253 45.5 182.433 45.32 182.433 44.96V27.14C182.433 26.78 182.253 26.6 181.893 26.6H178.869C178.509 26.6 178.329 26.78 178.329 27.14V39.398H178.113L170.985 27.059C170.895 26.897 170.787 26.78 170.661 26.708C170.553 26.636 170.4 26.6 170.202 26.6H166.098C165.738 26.6 165.558 26.78 165.558 27.14V44.96ZM193.086 44.96C193.086 45.32 193.266 45.5 193.626 45.5H196.677C197.037 45.5 197.217 45.32 197.217 44.96V33.485H197.406L201.969 44.987C202.041 45.185 202.122 45.32 202.212 45.392C202.32 45.464 202.473 45.5 202.671 45.5H205.128C205.326 45.5 205.47 45.464 205.56 45.392C205.668 45.302 205.758 45.167 205.83 44.987L210.366 33.485H210.582V44.96C210.582 45.32 210.762 45.5 211.122 45.5H214.146C214.506 45.5 214.686 45.32 214.686 44.96V27.14C214.686 26.78 214.506 26.6 214.146 26.6H209.691C209.493 26.6 209.34 26.636 209.232 26.708C209.142 26.78 209.061 26.906 208.989 27.086L203.994 39.884H203.805L198.81 27.086C198.738 26.906 198.648 26.78 198.54 26.708C198.432 26.636 198.288 26.6 198.108 26.6H193.626C193.266 26.6 193.086 26.78 193.086 27.14V44.96ZM220.321 44.447C221.113 45.239 222.319 45.635 223.939 45.635H231.904C233.524 45.635 234.721 45.239 235.495 44.447C236.287 43.655 236.683 42.449 236.683 40.829V31.244C236.683 29.624 236.287 28.427 235.495 27.653C234.721 26.861 233.524 26.465 231.904 26.465H223.939C222.319 26.465 221.113 26.861 220.321 27.653C219.529 28.427 219.133 29.624 219.133 31.244V40.829C219.133 42.449 219.529 43.655 220.321 44.447ZM232.066 41.639C231.796 41.909 231.355 42.044 230.743 42.044H225.073C224.461 42.044 224.011 41.909 223.723 41.639C223.453 41.351 223.318 40.901 223.318 40.289V31.784C223.318 31.172 223.453 30.731 223.723 30.461C224.011 30.173 224.461 30.029 225.073 30.029H230.743C231.355 30.029 231.796 30.173 232.066 30.461C232.354 30.731 232.498 31.172 232.498 31.784V40.289C232.498 40.901 232.354 41.351 232.066 41.639ZM257.408 45.068C257.408 44.924 257.354 44.789 257.246 44.663L251.954 38.453V38.345H252.683C254.267 38.345 255.41 37.985 256.112 37.265C256.832 36.545 257.192 35.393 257.192 33.809V31.109C257.192 29.525 256.832 28.382 256.112 27.68C255.41 26.96 254.267 26.6 252.683 26.6H241.667C241.307 26.6 241.127 26.78 241.127 27.14V44.96C241.127 45.32 241.307 45.5 241.667 45.5H244.772C245.132 45.5 245.312 45.32 245.312 44.96V38.345H246.959L252.548 45.095C252.674 45.239 252.8 45.347 252.926 45.419C253.052 45.473 253.214 45.5 253.412 45.5H256.922C257.084 45.5 257.201 45.464 257.273 45.392C257.363 45.302 257.408 45.194 257.408 45.068ZM245.312 35.105V30.029H251.387C251.981 30.029 252.395 30.155 252.629 30.407C252.881 30.641 253.007 31.055 253.007 31.649V33.485C253.007 34.079 252.881 34.502 252.629 34.754C252.395 34.988 251.981 35.105 251.387 35.105H245.312ZM275.611 42.53C275.611 42.17 275.431 41.99 275.071 41.99H265.351V37.67H271.966C272.326 37.67 272.506 37.49 272.506 37.13V34.835C272.506 34.475 272.326 34.295 271.966 34.295H265.351V30.11H274.801C275.161 30.11 275.341 29.93 275.341 29.57V27.14C275.341 26.78 275.161 26.6 274.801 26.6H261.706C261.346 26.6 261.166 26.78 261.166 27.14V44.96C261.166 45.32 261.346 45.5 261.706 45.5H275.071C275.431 45.5 275.611 45.32 275.611 44.96V42.53Z" fill="#FEFD33"/>
</svg>
