<svg width="300" height="60" viewBox="0 0 300 60" fill="none" xmlns="http://www.w3.org/2000/svg">
<g clip-path="url(#clip0_202_40015)">
<path d="M1.2 1.2H269.503L298.8 30.4971V58.8H15.4971L1.2 44.5029V1.2Z" stroke="white" stroke-width="2.4"/>
<path d="M67.7323 21.88C68.9995 21.88 69.9139 22.168 70.4755 22.744C71.0515 23.3056 71.3395 24.22 71.3395 25.4872V28.0792C71.3395 29.3464 71.0515 30.268 70.4755 30.844C69.9139 31.42 68.9995 31.708 67.7323 31.708H61.6195V36.568C61.6195 36.856 61.4755 37 61.1875 37H58.7035C58.4155 37 58.2715 36.856 58.2715 36.568V22.312C58.2715 22.024 58.4155 21.88 58.7035 21.88H67.7323ZM67.9915 25.9192C67.9915 25.444 67.8907 25.1128 67.6891 24.9256C67.5019 24.724 67.1707 24.6232 66.6955 24.6232H61.6195V28.9432H66.6955C67.1707 28.9432 67.5019 28.8496 67.6891 28.6624C67.8907 28.4608 67.9915 28.1224 67.9915 27.6472V25.9192ZM74.7559 37C74.4679 37 74.3239 36.856 74.3239 36.568V22.312C74.3239 22.024 74.4679 21.88 74.7559 21.88H77.2399C77.5279 21.88 77.6719 22.024 77.6719 22.312V33.976H84.9727C85.2607 33.976 85.4047 34.12 85.4047 34.408V36.568C85.4047 36.856 85.2607 37 84.9727 37H74.7559ZM100.767 36.4168C100.796 36.4744 100.811 36.5464 100.811 36.6328C100.811 36.8776 100.645 37 100.314 37H98.0458C97.8874 37 97.765 36.9712 97.6786 36.9136C97.5922 36.856 97.5202 36.7552 97.4626 36.6112L96.4042 33.9112H89.9674L88.909 36.6112C88.8514 36.7552 88.7794 36.856 88.693 36.9136C88.6066 36.9712 88.4914 37 88.3474 37H86.0362C85.705 37 85.5394 36.8776 85.5394 36.6328C85.5394 36.5464 85.561 36.46 85.6042 36.3736L91.2418 22.2688C91.3426 22.0096 91.537 21.88 91.825 21.88H94.5466C94.705 21.88 94.8274 21.9088 94.9138 21.9664C95.0002 22.024 95.0722 22.1248 95.1298 22.2688L100.767 36.4168ZM93.121 25.5304L90.961 31.1032H95.4106L93.2506 25.5304H93.121ZM105.439 37C105.151 37 105.007 36.856 105.007 36.568V31.6L99.6074 22.5496C99.5498 22.4488 99.521 22.348 99.521 22.2472C99.521 22.132 99.5642 22.0456 99.6506 21.988C99.737 21.916 99.8594 21.88 100.018 21.88H102.437C102.595 21.88 102.718 21.9088 102.804 21.9664C102.891 22.0096 102.977 22.1032 103.063 22.2472L106.584 28.2952H106.735L110.321 22.2256C110.393 22.096 110.472 22.0096 110.559 21.9664C110.659 21.9088 110.789 21.88 110.947 21.88H113.345C113.503 21.88 113.626 21.916 113.712 21.988C113.799 22.06 113.842 22.1536 113.842 22.2688C113.842 22.3552 113.813 22.4488 113.755 22.5496L108.355 31.6V36.568C108.355 36.856 108.211 37 107.923 37H105.439ZM130.07 21.88C130.358 21.88 130.502 22.024 130.502 22.312V24.2992C130.502 24.5872 130.358 24.7312 130.07 24.7312H122.834V28.252H127.65C127.938 28.252 128.082 28.396 128.082 28.684V30.6712C128.082 30.9592 127.938 31.1032 127.65 31.1032H122.834V36.568C122.834 36.856 122.69 37 122.402 37H119.918C119.63 37 119.486 36.856 119.486 36.568V22.312C119.486 22.024 119.63 21.88 119.918 21.88H130.07ZM145.775 36.3304C145.862 36.4312 145.905 36.5392 145.905 36.6544C145.905 36.7552 145.869 36.8416 145.797 36.9136C145.739 36.9712 145.646 37 145.516 37H142.708C142.55 37 142.42 36.9784 142.319 36.9352C142.219 36.8776 142.118 36.7912 142.017 36.676L137.546 31.276H136.228V36.568C136.228 36.856 136.084 37 135.796 37H133.312C133.024 37 132.88 36.856 132.88 36.568V22.312C132.88 22.024 133.024 21.88 133.312 21.88H142.125C143.392 21.88 144.307 22.168 144.868 22.744C145.444 23.3056 145.732 24.22 145.732 25.4872V27.6472C145.732 28.9144 145.444 29.836 144.868 30.412C144.307 30.988 143.392 31.276 142.125 31.276H141.542V31.3624L145.775 36.3304ZM136.228 24.6232V28.684H141.088C141.563 28.684 141.895 28.5904 142.082 28.4032C142.283 28.2016 142.384 27.8632 142.384 27.388V25.9192C142.384 25.444 142.283 25.1128 142.082 24.9256C141.895 24.724 141.563 24.6232 141.088 24.6232H136.228ZM160.035 34.192C160.323 34.192 160.467 34.336 160.467 34.624V36.568C160.467 36.856 160.323 37 160.035 37H149.343C149.055 37 148.911 36.856 148.911 36.568V22.312C148.911 22.024 149.055 21.88 149.343 21.88H159.819C160.107 21.88 160.251 22.024 160.251 22.312V24.256C160.251 24.544 160.107 24.688 159.819 24.688H152.259V28.036H157.551C157.839 28.036 157.983 28.18 157.983 28.468V30.304C157.983 30.592 157.839 30.736 157.551 30.736H152.259V34.192H160.035ZM174.358 34.192C174.646 34.192 174.79 34.336 174.79 34.624V36.568C174.79 36.856 174.646 37 174.358 37H163.666C163.378 37 163.234 36.856 163.234 36.568V22.312C163.234 22.024 163.378 21.88 163.666 21.88H174.142C174.43 21.88 174.574 22.024 174.574 22.312V24.256C174.574 24.544 174.43 24.688 174.142 24.688H166.582V28.036H171.874C172.162 28.036 172.306 28.18 172.306 28.468V30.304C172.306 30.592 172.162 30.736 171.874 30.736H166.582V34.192H174.358ZM182.84 37C182.552 37 182.408 36.856 182.408 36.568V22.312C182.408 22.024 182.552 21.88 182.84 21.88H186.123C186.282 21.88 186.404 21.9088 186.491 21.9664C186.591 22.024 186.678 22.1176 186.75 22.2472L192.452 32.1184H192.625V22.312C192.625 22.024 192.769 21.88 193.057 21.88H195.476C195.764 21.88 195.908 22.024 195.908 22.312V36.568C195.908 36.856 195.764 37 195.476 37H192.193C192.035 37 191.905 36.9712 191.804 36.9136C191.718 36.856 191.639 36.7552 191.567 36.6112L185.864 26.74H185.713V36.568C185.713 36.856 185.569 37 185.281 37H182.84ZM203.315 37.108C202.019 37.108 201.055 36.7912 200.421 36.1576C199.787 35.524 199.471 34.5592 199.471 33.2632V25.5952C199.471 24.2992 199.787 23.3416 200.421 22.7224C201.055 22.0888 202.019 21.772 203.315 21.772H209.687C210.983 21.772 211.941 22.0888 212.56 22.7224C213.194 23.3416 213.511 24.2992 213.511 25.5952V33.2632C213.511 34.5592 213.194 35.524 212.56 36.1576C211.941 36.7912 210.983 37.108 209.687 37.108H203.315ZM208.759 34.2352C209.248 34.2352 209.601 34.1272 209.817 33.9112C210.047 33.6808 210.163 33.3208 210.163 32.8312V26.0272C210.163 25.5376 210.047 25.1848 209.817 24.9688C209.601 24.7384 209.248 24.6232 208.759 24.6232H204.223C203.733 24.6232 203.373 24.7384 203.143 24.9688C202.927 25.1848 202.819 25.5376 202.819 26.0272V32.8312C202.819 33.3208 202.927 33.6808 203.143 33.9112C203.373 34.1272 203.733 34.2352 204.223 34.2352H208.759ZM219.549 37C219.405 37 219.29 36.9712 219.204 36.9136C219.132 36.856 219.074 36.748 219.031 36.5896L215.467 22.3336C215.452 22.2904 215.445 22.2328 215.445 22.1608C215.445 21.9736 215.582 21.88 215.856 21.88H218.383C218.556 21.88 218.685 21.9088 218.772 21.9664C218.858 22.0096 218.916 22.1032 218.944 22.2472L221.277 32.8312H221.45L224.064 22.2688C224.092 22.1248 224.143 22.024 224.215 21.9664C224.301 21.9088 224.424 21.88 224.582 21.88H227.023C227.181 21.88 227.296 21.9088 227.368 21.9664C227.455 22.024 227.512 22.1248 227.541 22.2688L230.155 32.8312H230.328L231.559 27.3448L232.704 22.2904C232.732 22.132 232.783 22.024 232.855 21.9664C232.941 21.9088 233.064 21.88 233.222 21.88H235.771C236.03 21.88 236.16 21.9808 236.16 22.1824C236.16 22.2544 236.152 22.312 236.138 22.3552L232.574 36.5896C232.531 36.748 232.466 36.856 232.38 36.9136C232.308 36.9712 232.2 37 232.056 37H228.794C228.636 37 228.513 36.9712 228.427 36.9136C228.355 36.856 228.304 36.748 228.276 36.5896L225.878 26.9992H225.727L223.329 36.5896C223.3 36.748 223.243 36.856 223.156 36.9136C223.084 36.9712 222.969 37 222.811 37H219.549Z" fill="white"/>
</g>
<defs>
<clipPath id="clip0_202_40015">
<rect width="300" height="60" fill="white"/>
</clipPath>
</defs>
</svg>
