<svg width="300" height="60" viewBox="0 0 300 60" fill="none" xmlns="http://www.w3.org/2000/svg">
<g clip-path="url(#clip0_202_40014)">
<path d="M1.2 1.2H269.503L298.8 30.4971V58.8H15.4971L1.2 44.5029V1.2Z" stroke="#FEFD33" stroke-width="2.4"/>
<path fill-rule="evenodd" clip-rule="evenodd" d="M268.201 4.80005H4.80078V42.6001L17.4008 55.2001H295.2L295.201 31.8001L268.201 4.80005ZM53.2266 36.244C53.8026 36.82 54.7242 37.108 55.9914 37.108H61.8666C63.1482 37.108 64.0698 36.82 64.6314 36.244C65.2074 35.668 65.4954 34.7464 65.4954 33.4792V31.7512C65.4954 30.484 65.2074 29.5696 64.6314 29.008C64.0554 28.432 63.1338 28.144 61.8666 28.144H57.2874C56.8122 28.144 56.4738 28.0504 56.2722 27.8632C56.085 27.6616 55.9914 27.3232 55.9914 26.848V25.66C55.9914 25.1848 56.085 24.8536 56.2722 24.6664C56.4738 24.4648 56.8122 24.364 57.2874 24.364H60.2034C60.6786 24.364 61.0098 24.4648 61.197 24.6664C61.3986 24.8536 61.4994 25.1848 61.4994 25.66V26.2432C61.4994 26.5312 61.6434 26.6752 61.9314 26.6752H64.4586C64.7466 26.6752 64.8906 26.5312 64.8906 26.2432V25.3792C64.8906 24.112 64.6026 23.1976 64.0266 22.636C63.465 22.06 62.5506 21.772 61.2834 21.772H56.2506C54.9834 21.772 54.0618 22.06 53.4858 22.636C52.9242 23.1976 52.6434 24.112 52.6434 25.3792V27.1288C52.6434 28.396 52.9242 29.3176 53.4858 29.8936C54.0618 30.4552 54.9834 30.736 56.2506 30.736H60.8514C61.3266 30.736 61.6578 30.8368 61.845 31.0384C62.0466 31.2256 62.1474 31.5568 62.1474 32.032V33.22C62.1474 33.6952 62.0466 34.0336 61.845 34.2352C61.6578 34.4224 61.3266 34.516 60.8514 34.516H57.0714C56.5962 34.516 56.2578 34.4224 56.0562 34.2352C55.869 34.0336 55.7754 33.6952 55.7754 33.22V32.6152C55.7754 32.3272 55.6314 32.1832 55.3434 32.1832H52.7946C52.5066 32.1832 52.3626 32.3272 52.3626 32.6152V33.4792C52.3626 34.7464 52.6506 35.668 53.2266 36.244ZM80.1262 34.624C80.1262 34.336 79.9822 34.192 79.6942 34.192H71.9182V30.736H77.2102C77.4982 30.736 77.6422 30.592 77.6422 30.304V28.468C77.6422 28.18 77.4982 28.036 77.2102 28.036H71.9182V24.688H79.4782C79.7662 24.688 79.9102 24.544 79.9102 24.256V22.312C79.9102 22.024 79.7662 21.88 79.4782 21.88H69.0022C68.7142 21.88 68.5702 22.024 68.5702 22.312V36.568C68.5702 36.856 68.7142 37 69.0022 37H79.6942C79.9822 37 80.1262 36.856 80.1262 36.568V34.624ZM94.4488 34.624C94.4488 34.336 94.3048 34.192 94.0168 34.192H86.2408V30.736H91.5328C91.8208 30.736 91.9648 30.592 91.9648 30.304V28.468C91.9648 28.18 91.8208 28.036 91.5328 28.036H86.2408V24.688H93.8008C94.0888 24.688 94.2328 24.544 94.2328 24.256V22.312C94.2328 22.024 94.0888 21.88 93.8008 21.88H83.3248C83.0368 21.88 82.8928 22.024 82.8928 22.312V36.568C82.8928 36.856 83.0368 37 83.3248 37H94.0168C94.3048 37 94.4488 36.856 94.4488 36.568V34.624ZM113.185 22.312C113.185 22.024 113.041 21.88 112.753 21.88H100.117C99.8291 21.88 99.6852 22.024 99.6852 22.312V24.472C99.6852 24.76 99.8291 24.904 100.117 24.904H104.761V36.568C104.761 36.856 104.905 37 105.193 37H107.677C107.965 37 108.109 36.856 108.109 36.568V24.904H112.753C113.041 24.904 113.185 24.76 113.185 24.472V22.312ZM128.473 22.312C128.473 22.024 128.329 21.88 128.041 21.88H125.557C125.269 21.88 125.125 22.024 125.125 22.312V27.9712H118.472V22.312C118.472 22.024 118.328 21.88 118.04 21.88H115.556C115.268 21.88 115.124 22.024 115.124 22.312V36.568C115.124 36.856 115.268 37 115.556 37H118.04C118.328 37 118.472 36.856 118.472 36.568V30.9952H125.125V36.568C125.125 36.856 125.269 37 125.557 37H128.041C128.329 37 128.473 36.856 128.473 36.568V22.312ZM143.703 34.624C143.703 34.336 143.559 34.192 143.271 34.192H135.495V30.736H140.787C141.075 30.736 141.219 30.592 141.219 30.304V28.468C141.219 28.18 141.075 28.036 140.787 28.036H135.495V24.688H143.055C143.343 24.688 143.487 24.544 143.487 24.256V22.312C143.487 22.024 143.343 21.88 143.055 21.88H132.579C132.291 21.88 132.147 22.024 132.147 22.312V36.568C132.147 36.856 132.291 37 132.579 37H143.271C143.559 37 143.703 36.856 143.703 36.568V34.624ZM164.346 36.6544C164.346 36.5392 164.303 36.4312 164.216 36.3304L159.983 31.3624V31.276H160.566C161.833 31.276 162.747 30.988 163.309 30.412C163.885 29.836 164.173 28.9144 164.173 27.6472V25.4872C164.173 24.22 163.885 23.3056 163.309 22.744C162.747 22.168 161.833 21.88 160.566 21.88H151.753C151.465 21.88 151.321 22.024 151.321 22.312V36.568C151.321 36.856 151.465 37 151.753 37H154.237C154.525 37 154.669 36.856 154.669 36.568V31.276H155.987L160.458 36.676C160.559 36.7912 160.659 36.8776 160.76 36.9352C160.861 36.9784 160.991 37 161.149 37H163.957C164.087 37 164.18 36.9712 164.238 36.9136C164.31 36.8416 164.346 36.7552 164.346 36.6544ZM154.669 28.684V24.6232H159.529C160.004 24.6232 160.335 24.724 160.523 24.9256C160.724 25.1128 160.825 25.444 160.825 25.9192V27.388C160.825 27.8632 160.724 28.2016 160.523 28.4032C160.335 28.5904 160.004 28.684 159.529 28.684H154.669ZM168.195 36.1576C168.828 36.7912 169.793 37.108 171.089 37.108H177.461C178.757 37.108 179.715 36.7912 180.334 36.1576C180.967 35.524 181.284 34.5592 181.284 33.2632V25.5952C181.284 24.2992 180.967 23.3416 180.334 22.7224C179.715 22.0888 178.757 21.772 177.461 21.772H171.089C169.793 21.772 168.828 22.0888 168.195 22.7224C167.561 23.3416 167.244 24.2992 167.244 25.5952V33.2632C167.244 34.5592 167.561 35.524 168.195 36.1576ZM177.591 33.9112C177.375 34.1272 177.022 34.2352 176.532 34.2352H171.996C171.507 34.2352 171.147 34.1272 170.916 33.9112C170.7 33.6808 170.592 33.3208 170.592 32.8312V26.0272C170.592 25.5376 170.7 25.1848 170.916 24.9688C171.147 24.7384 171.507 24.6232 171.996 24.6232H176.532C177.022 24.6232 177.375 24.7384 177.591 24.9688C177.821 25.1848 177.936 25.5376 177.936 26.0272V32.8312C177.936 33.3208 177.821 33.6808 177.591 33.9112ZM185.379 36.244C185.955 36.82 186.877 37.108 188.144 37.108H194.019C195.301 37.108 196.222 36.82 196.784 36.244C197.36 35.668 197.648 34.7464 197.648 33.4792V31.7512C197.648 30.484 197.36 29.5696 196.784 29.008C196.208 28.432 195.286 28.144 194.019 28.144H189.44C188.965 28.144 188.626 28.0504 188.425 27.8632C188.237 27.6616 188.144 27.3232 188.144 26.848V25.66C188.144 25.1848 188.237 24.8536 188.425 24.6664C188.626 24.4648 188.965 24.364 189.44 24.364H192.356C192.831 24.364 193.162 24.4648 193.349 24.6664C193.551 24.8536 193.652 25.1848 193.652 25.66V26.2432C193.652 26.5312 193.796 26.6752 194.084 26.6752H196.611C196.899 26.6752 197.043 26.5312 197.043 26.2432V25.3792C197.043 24.112 196.755 23.1976 196.179 22.636C195.617 22.06 194.703 21.772 193.436 21.772H188.403C187.136 21.772 186.214 22.06 185.638 22.636C185.077 23.1976 184.796 24.112 184.796 25.3792V27.1288C184.796 28.396 185.077 29.3176 185.638 29.8936C186.214 30.4552 187.136 30.736 188.403 30.736H193.004C193.479 30.736 193.81 30.8368 193.997 31.0384C194.199 31.2256 194.3 31.5568 194.3 32.032V33.22C194.3 33.6952 194.199 34.0336 193.997 34.2352C193.81 34.4224 193.479 34.516 193.004 34.516H189.224C188.749 34.516 188.41 34.4224 188.209 34.2352C188.021 34.0336 187.928 33.6952 187.928 33.22V32.6152C187.928 32.3272 187.784 32.1832 187.496 32.1832H184.947C184.659 32.1832 184.515 32.3272 184.515 32.6152V33.4792C184.515 34.7464 184.803 35.668 185.379 36.244ZM212.495 22.312C212.495 22.024 212.351 21.88 212.063 21.88H199.427C199.139 21.88 198.995 22.024 198.995 22.312V24.472C198.995 24.76 199.139 24.904 199.427 24.904H204.071V36.568C204.071 36.856 204.215 37 204.503 37H206.987C207.275 37 207.419 36.856 207.419 36.568V24.904H212.063C212.351 24.904 212.495 24.76 212.495 24.472V22.312ZM225.989 34.624C225.989 34.336 225.845 34.192 225.557 34.192H217.781V30.736H223.073C223.361 30.736 223.505 30.592 223.505 30.304V28.468C223.505 28.18 223.361 28.036 223.073 28.036H217.781V24.688H225.341C225.629 24.688 225.773 24.544 225.773 24.256V22.312C225.773 22.024 225.629 21.88 225.341 21.88H214.865C214.577 21.88 214.433 22.024 214.433 22.312V36.568C214.433 36.856 214.577 37 214.865 37H225.557C225.845 37 225.989 36.856 225.989 36.568V34.624ZM241.781 36.6544C241.781 36.5392 241.738 36.4312 241.651 36.3304L237.418 31.3624V31.276H238.001C239.268 31.276 240.183 30.988 240.744 30.412C241.32 29.836 241.608 28.9144 241.608 27.6472V25.4872C241.608 24.22 241.32 23.3056 240.744 22.744C240.183 22.168 239.268 21.88 238.001 21.88H229.188C228.9 21.88 228.756 22.024 228.756 22.312V36.568C228.756 36.856 228.9 37 229.188 37H231.672C231.96 37 232.104 36.856 232.104 36.568V31.276H233.422L237.893 36.676C237.994 36.7912 238.095 36.8776 238.195 36.9352C238.296 36.9784 238.426 37 238.584 37H241.392C241.522 37 241.615 36.9712 241.673 36.9136C241.745 36.8416 241.781 36.7552 241.781 36.6544ZM232.104 28.684V24.6232H236.964C237.439 24.6232 237.771 24.724 237.958 24.9256C238.159 25.1128 238.26 25.444 238.26 25.9192V27.388C238.26 27.8632 238.159 28.2016 237.958 28.4032C237.771 28.5904 237.439 28.684 236.964 28.684H232.104Z" fill="#FEFD33"/>
</g>
<defs>
<clipPath id="clip0_202_40014">
<rect width="300" height="60" fill="white"/>
</clipPath>
</defs>
</svg>
