<svg width="28" height="30" viewBox="0 0 28 30" fill="none" xmlns="http://www.w3.org/2000/svg">
<path d="M26.6229 16.4691C26.6229 23.7919 20.6866 29.7283 13.3637 29.7283C6.04085 29.7283 0.104492 23.7919 0.104492 16.4691C0.104492 9.1462 6.04085 3.20984 13.3637 3.20984C20.6866 3.20984 26.6229 9.1462 26.6229 16.4691ZM1.54116 16.4691C1.54116 22.9985 6.8343 28.2916 13.3637 28.2916C19.8931 28.2916 25.1863 22.9985 25.1863 16.4691C25.1863 9.93965 19.8931 4.6465 13.3637 4.6465C6.8343 4.6465 1.54116 9.93965 1.54116 16.4691Z" fill="white"/>
<path d="M13.3643 8.73462V17.6396C13.3643 17.8294 13.5879 17.9309 13.7308 17.8059L17.784 14.2593" stroke="white" stroke-width="1.43642" stroke-linecap="round"/>
<path d="M9.49707 1H17.2316" stroke="white" stroke-width="1.10494" stroke-linecap="round"/>
<path d="M24.4141 4.3147L26.6239 6.52457" stroke="white" stroke-width="1.10494" stroke-linecap="round"/>
</svg>
