<svg width="37" height="23" viewBox="0 0 37 23" fill="none" xmlns="http://www.w3.org/2000/svg">
<path d="M28.7769 18.3123C28.7769 16.0419 30.6175 14.2014 32.8879 14.2014C35.1583 14.2014 36.9989 16.0419 36.9989 18.3123C36.9989 20.5828 35.1583 22.4233 32.8879 22.4233C30.6175 22.4233 28.7769 20.5828 28.7769 18.3123Z" fill="#252525"/>
<path d="M28.778 4.11075C28.778 1.84031 30.6186 -0.000240884 32.889 -0.000240685C35.1594 -0.000240487 37 1.84031 37 4.11075C37 6.38119 35.1594 8.22174 32.889 8.22174C30.6186 8.22174 28.778 6.38118 28.778 4.11075Z" fill="#252525"/>
<path d="M3.59394e-07 18.3123C5.57882e-07 16.0419 1.84055 14.2014 4.11099 14.2014C6.38143 14.2014 8.22197 16.0419 8.22197 18.3123C8.22197 20.5828 6.38143 22.4233 4.11099 22.4233C1.84055 22.4233 1.60906e-07 20.5828 3.59394e-07 18.3123Z" fill="#252525"/>
<path d="M0.00109642 4.11075C0.00109662 1.84031 1.84165 -0.0002434 4.11209 -0.000243201C6.38252 -0.000243003 8.22308 1.84031 8.22308 4.11075C8.22308 6.38118 6.38252 8.22174 4.11208 8.22173C1.84165 8.22173 0.00109622 6.38118 0.00109642 4.11075Z" fill="#252525"/>
</svg>
